<svg xmlns="http://www.w3.org/2000/svg" width="512.000000pt" height="512.000000pt" viewBox="0 0 512.000000 512.000000" preserveAspectRatio="xMidYMid meet"><g transform="translate(0.000000,512.000000) scale(0.100000,-0.100000)" fill="#000000" stroke="none"><path d="M2464 5102 c-166 -59 -241 -244 -163 -400 53 -107 142 -162 259 -162 119 0 207 56 261 165 29 59 31 71 27 137 -6 84 -27 134 -84 192 -74 76 -199 104 -300 68z m164 -152 c66 -41 89 -116 55 -187 -22 -46 -67 -73 -123 -73 -144 0 -192 184 -68 260 18 11 49 20 68 20 19 0 50 -9 68 -20z"></path><path d="M903 4450 c-213 -42 -306 -291 -174 -466 80 -106 231 -141 353 -81 106 52 163 144 162 263 0 87 -35 166 -96 218 -62 54 -166 81 -245 66z m135 -171 c34 -21 66 -93 59 -135 -11 -65 -76 -124 -138 -124 -36 0 -103 37 -121 67 -33 56 -27 124 15 169 48 53 122 62 185 23z"></path><path d="M4113 4449 c-130 -25 -224 -125 -239 -255 -13 -103 45 -220 137 -276 198 -123 444 19 442 254 -2 172 -171 310 -340 277z m155 -193 c62 -68 41 -176 -43 -216 -50 -24 -76 -25 -121 -4 -73 35 -101 114 -65 186 45 93 158 110 229 34z"></path><path d="M2515 4331 c-16 -10 -78 -68 -137 -128 -117 -119 -126 -138 -87 -187 34 -43 73 -36 136 26 l53 52 0 -236 0 -237 -37 -6 c-191 -29 -388 -106 -516 -204 l-65 -48 -168 168 -169 169 73 0 c85 0 105 8 121 49 16 38 -7 88 -46 97 -14 4 -101 4 -192 1 -222 -8 -211 3 -211 -226 0 -155 2 -170 21 -195 26 -33 79 -36 109 -6 16 16 20 33 20 92 l0 73 166 -166 166 -166 -46 -63 c-99 -134 -177 -334 -201 -512 l-6 -48 -235 0 -236 0 30 38 c16 20 39 46 51 56 48 43 14 126 -51 126 -29 0 -47 -15 -155 -127 -67 -71 -125 -138 -128 -151 -9 -36 16 -70 138 -189 123 -122 142 -131 191 -92 43 34 36 73 -26 136 l-52 53 236 0 c266 0 240 9 253 -85 20 -144 103 -338 198 -464 l49 -64 -171 -171 -171 -171 0 73 c0 40 -4 81 -10 91 -14 28 -61 44 -93 32 -46 -18 -50 -40 -44 -230 7 -233 -5 -221 226 -221 155 0 170 2 195 21 33 26 36 79 6 109 -16 16 -33 20 -92 20 l-73 0 169 169 169 169 60 -44 c131 -97 333 -176 510 -199 l47 -6 0 -240 0 -240 -27 19 c-16 11 -41 34 -57 51 -54 57 -136 32 -136 -41 0 -29 15 -48 127 -155 71 -67 138 -124 151 -128 36 -9 70 16 190 138 121 123 130 142 91 191 -34 43 -73 36 -136 -26 l-53 -52 0 242 c0 186 3 243 13 246 6 2 45 9 86 15 89 14 121 28 140 62 12 22 12 29 0 54 -24 48 -37 51 -152 32 -233 -38 -431 -5 -625 105 -106 59 -271 224 -330 330 -198 351 -150 777 120 1063 171 181 371 277 609 292 250 16 486 -70 669 -244 135 -128 215 -260 262 -435 30 -111 32 -327 4 -433 -50 -188 -132 -323 -283 -464 -89 -83 -103 -100 -103 -128 0 -39 33 -73 71 -73 17 0 47 15 77 39 l49 39 174 -174 174 -174 -73 0 c-40 0 -81 -4 -91 -10 -28 -14 -44 -61 -32 -93 18 -46 40 -50 230 -44 233 7 221 -5 221 226 0 155 -2 170 -21 195 -26 33 -79 36 -109 6 -16 -16 -20 -33 -20 -92 l0 -73 -171 171 -171 171 47 64 c94 128 195 382 195 493 0 58 -4 57 254 54 l237 -3 -51 -57 c-37 -42 -50 -64 -50 -87 0 -41 31 -71 73 -71 28 0 46 15 154 127 67 71 125 138 128 151 9 36 -16 70 -138 190 -123 121 -142 130 -191 91 -43 -34 -36 -73 26 -136 l52 -53 -241 0 c-263 0 -253 -2 -253 60 0 106 -102 363 -195 489 l-47 64 171 171 171 171 0 -73 c0 -85 8 -105 49 -121 38 -16 88 7 97 46 4 14 4 101 1 192 -8 222 4 211 -226 211 -155 0 -170 -2 -195 -21 -33 -26 -36 -79 -6 -109 16 -16 33 -20 92 -20 l73 0 -169 -169 -168 -168 -64 48 c-131 99 -323 175 -516 204 l-38 6 0 235 0 236 38 -30 c20 -16 46 -39 56 -51 25 -27 79 -28 106 -1 21 21 26 60 11 89 -17 31 -247 240 -272 246 -15 3 -35 -2 -54 -14z"></path><path d="M2445 3313 c-72 -12 -101 -91 -49 -132 23 -18 35 -20 117 -15 280 18 531 -152 618 -417 34 -105 34 -263 0 -368 -76 -232 -287 -399 -529 -418 -365 -28 -671 274 -649 638 10 163 81 305 212 426 73 68 82 97 40 138 -46 47 -96 26 -197 -84 -283 -307 -276 -758 16 -1046 161 -159 357 -235 571 -222 118 8 190 27 304 83 79 39 109 61 180 133 165 166 241 359 228 576 -8 120 -27 191 -84 305 -39 77 -63 111 -133 181 -145 147 -305 218 -505 224 -60 2 -123 1 -140 -2z"></path><path d="M210 2841 c-75 -23 -150 -89 -184 -161 -15 -33 -21 -65 -21 -120 0 -89 23 -146 81 -203 57 -57 108 -79 190 -85 62 -4 79 -1 133 23 227 102 231 420 7 526 -63 30 -147 38 -206 20z m147 -158 c46 -22 73 -67 73 -123 0 -144 -184 -192 -260 -68 -39 64 -16 146 52 188 40 24 88 25 135 3z"></path><path d="M4703 2820 c-108 -54 -163 -143 -163 -260 0 -119 56 -207 165 -261 59 -29 71 -31 137 -27 84 6 139 30 192 84 58 60 81 117 81 204 0 87 -23 144 -81 204 -54 56 -108 79 -194 83 -69 4 -80 2 -137 -27z m195 -140 c94 -57 94 -183 0 -240 -62 -37 -152 -16 -189 44 -25 40 -25 112 0 152 37 60 127 81 189 44z"></path><path d="M865 1233 c-126 -45 -199 -150 -198 -284 2 -150 132 -280 282 -282 119 -1 227 66 274 171 29 65 29 170 1 233 -64 138 -223 210 -359 162z m151 -149 c73 -35 101 -114 65 -186 -64 -133 -263 -92 -263 55 0 60 26 102 77 127 49 24 76 25 121 4z"></path><path d="M4073 1232 c-102 -36 -171 -114 -194 -219 -32 -142 60 -295 201 -334 224 -63 424 138 361 362 -42 152 -220 244 -368 191z m152 -152 c131 -63 87 -262 -58 -262 -61 0 -102 26 -128 80 -35 72 -8 150 63 185 44 22 73 21 123 -3z"></path><path d="M2454 564 c-63 -22 -119 -77 -155 -149 -29 -59 -31 -71 -27 -137 8 -114 65 -200 167 -250 63 -31 176 -32 242 -2 98 45 159 138 167 252 4 66 2 78 -27 137 -37 74 -93 127 -159 149 -56 20 -153 19 -208 0z m182 -153 c87 -53 82 -186 -8 -241 -86 -53 -208 17 -208 118 0 82 59 142 140 142 26 0 58 -8 76 -19z"></path></g></svg>