<svg xmlns="http://www.w3.org/2000/svg" width="752.000000pt" height="752.000000pt" viewBox="0 0 752.000000 752.000000" preserveAspectRatio="xMidYMid meet"><g transform="translate(0.000000,752.000000) scale(0.100000,-0.100000)" fill="#000000" stroke="none"><path d="M3650 6033 c-59 -21 -144 -106 -161 -161 -9 -33 -19 -44 -43 -51 -129 -41 -1014 -296 -1066 -307 -218 -46 -461 22 -637 179 -59 52 -109 72 -156 62 -72 -16 -117 -72 -117 -147 0 -57 25 -95 107 -163 133 -111 292 -186 466 -222 l87 -17 -2 -355 -3 -354 -65 -13 c-243 -50 -442 -214 -538 -447 -42 -100 -56 -189 -49 -321 6 -123 26 -198 84 -307 89 -172 268 -312 463 -366 89 -24 281 -24 370 0 150 40 293 132 384 246 70 87 99 140 131 234 56 167 53 334 -8 496 -91 241 -301 420 -546 465 l-66 12 0 355 0 354 35 3 c92 6 195 33 673 172 283 82 522 152 531 156 15 6 16 -112 14 -1587 l-3 -1594 -443 -3 -442 -2 -110 -220 -110 -220 -185 0 -185 0 0 -220 0 -220 1700 0 1700 0 0 220 0 220 -185 0 -185 0 -110 220 -110 220 -442 2 -443 3 -3 1594 c-2 1372 0 1592 12 1588 23 -9 1006 -295 1056 -307 25 -6 77 -14 115 -18 l70 -7 0 -354 0 -355 -66 -12 c-185 -34 -366 -156 -474 -319 -206 -312 -136 -751 158 -981 38 -30 73 -54 78 -54 5 0 9 35 9 78 0 76 -1 79 -35 112 l-35 34 0 100 c0 99 0 101 -31 132 -25 26 -33 44 -37 85 -6 64 15 110 65 140 47 29 132 23 169 -12 70 -65 72 -162 5 -223 -18 -16 -21 -31 -21 -91 0 -68 1 -72 35 -105 l35 -34 0 -147 0 -148 58 -11 c31 -6 65 -12 75 -14 16 -4 17 23 17 447 l0 451 -31 32 c-25 26 -33 44 -37 85 -6 64 15 110 65 140 47 29 132 23 169 -12 70 -65 72 -162 5 -223 -21 -19 -21 -24 -21 -471 l0 -452 51 9 c106 19 99 7 99 176 l0 148 35 34 c33 32 35 38 35 99 0 59 -3 68 -32 98 -25 26 -32 43 -36 87 -8 100 57 163 157 154 127 -12 177 -166 82 -252 -19 -17 -21 -30 -21 -114 l0 -95 -40 -43 c-40 -43 -40 -44 -40 -124 l0 -81 33 18 c63 35 210 194 249 268 61 119 79 186 85 320 6 151 -10 235 -71 359 -98 200 -279 346 -486 392 -41 9 -81 18 -87 20 -10 3 -13 83 -13 357 l0 354 85 17 c176 34 333 108 468 221 82 68 107 106 107 163 0 75 -45 131 -117 147 -47 10 -97 -10 -156 -62 -177 -158 -418 -225 -637 -179 -52 11 -444 124 -1031 297 -63 18 -66 20 -78 60 -18 58 -101 140 -165 162 -61 21 -156 21 -216 0z m-1370 -1793 c0 -37 2 -40 28 -40 87 -1 192 -107 192 -195 0 -25 -1 -25 -75 -25 -66 0 -75 2 -75 18 0 11 -9 27 -21 38 -18 16 -37 19 -126 19 -98 0 -106 -2 -124 -24 -27 -33 -27 -139 0 -172 18 -22 28 -24 148 -29 141 -6 171 -16 218 -72 16 -18 34 -47 42 -65 17 -42 17 -194 0 -236 -32 -74 -113 -136 -179 -137 -26 0 -28 -3 -28 -40 l0 -40 -75 0 -75 0 0 39 c0 38 -1 38 -42 44 -61 8 -118 52 -150 116 -16 30 -28 65 -28 78 0 22 3 23 73 23 71 0 73 0 84 -30 15 -41 52 -52 154 -48 117 4 129 15 129 113 0 104 -7 109 -170 115 -122 5 -130 6 -172 35 -66 46 -98 117 -98 220 0 69 4 90 28 136 32 64 89 108 150 116 41 6 42 6 42 44 l0 39 75 0 75 0 0 -40z"></path></g></svg>